<svg width="502" height="502" viewBox="0 0 502 502" fill="none" xmlns="http://www.w3.org/2000/svg">
<g clip-path="url(#clip0_608_2)">
<path d="M390.445 435.351H83.6677V128.573H268.013L295.902 100.684H83.6677C76.2711 100.684 69.1775 103.622 63.9473 108.852C58.7171 114.083 55.7788 121.176 55.7788 128.573V435.351C55.7788 442.747 58.7171 449.841 63.9473 455.071C69.1775 460.301 76.2711 463.239 83.6677 463.239H390.445C397.842 463.239 404.936 460.301 410.166 455.071C415.396 449.841 418.334 442.747 418.334 435.351V226.184L390.445 254.073V435.351Z" fill="white"/>
<path d="M467.557 81.4356L420.564 34.4428C418.479 32.3515 416.001 30.6923 413.273 29.5602C410.546 28.4281 407.621 27.8454 404.668 27.8454C401.714 27.8454 398.79 28.4281 396.062 29.5602C393.334 30.6923 390.857 32.3515 388.771 34.4428L197.593 226.737L182.114 293.809C181.455 297.061 181.524 300.418 182.317 303.639C183.111 306.86 184.608 309.866 186.701 312.439C188.795 315.013 191.432 317.09 194.425 318.523C197.417 319.955 200.69 320.706 204.007 320.722C205.722 320.91 207.452 320.91 209.167 320.722L276.797 305.802L467.557 113.229C469.648 111.143 471.308 108.666 472.44 105.938C473.572 103.21 474.155 100.286 474.155 97.3322C474.155 94.3788 473.572 91.4544 472.44 88.7266C471.308 85.9987 469.648 83.5211 467.557 81.4356ZM262.295 280.004L211.258 291.299L223.111 240.681L367.018 95.7983L406.341 135.122L262.295 280.004ZM422.098 119.364L382.775 80.0411L404.389 58.0089L443.991 97.6111L422.098 119.364Z" fill="white"/>
</g>
<defs>
<clipPath id="clip0_608_2">
<rect width="502" height="502" fill="white"/>
</clipPath>
</defs>
</svg>
